<svg width="16" height="16" viewBox="0 0 16 16" fill="none" xmlns="http://www.w3.org/2000/svg">
<path fill-rule="evenodd" clip-rule="evenodd" d="M8.08226 4.1709C7.58022 4.17102 7.17324 4.57795 7.1731 5.08001C7.17295 5.58215 7.57981 5.98936 8.08194 5.98966C8.584 5.98995 8.9913 5.58333 8.99186 5.0813C8.99196 4.83995 8.89619 4.60845 8.72561 4.43771C8.55507 4.26703 8.32374 4.17106 8.08248 4.1709M6.1731 5.07972C6.1734 4.02542 7.02817 3.1709 8.08247 3.1709H8.08269C8.58926 3.17112 9.07498 3.37257 9.43302 3.73092C9.79106 4.08927 9.99208 4.57517 9.99186 5.08174L9.99185 5.08195C9.99093 6.13626 9.13566 6.99027 8.08136 6.98966C7.02706 6.98904 6.17279 6.13402 6.1731 5.07972Z" fill="#1E54B7"/>
<path fill-rule="evenodd" clip-rule="evenodd" d="M9.53677 8.06836C9.54218 8.06835 9.54761 8.06844 9.55303 8.06861C10.8384 8.10899 11.8595 9.16266 11.8595 10.4487C11.8595 11.7347 10.8384 12.7883 9.55303 12.8287L9.53733 12.829H6.63076L6.61506 12.8287C5.32968 12.7883 4.30859 11.7347 4.30859 10.4487C4.30859 9.16266 5.32968 8.10899 6.61506 8.06861L6.63076 8.06836H9.53677ZM6.6392 9.06836C5.89704 9.0955 5.30859 9.70514 5.30859 10.4487C5.30859 11.1922 5.89704 11.8018 6.6392 11.829H9.52889C10.2711 11.8018 10.8595 11.1922 10.8595 10.4487C10.8595 9.70514 10.2711 9.0955 9.52889 9.06836H6.6392Z" fill="#1E54B7"/>
<path fill-rule="evenodd" clip-rule="evenodd" d="M11.9785 5.58081C11.6594 5.58081 11.4007 5.83948 11.4006 6.15861C11.4006 6.47773 11.6592 6.7365 11.9783 6.73662C12.2974 6.73675 12.5563 6.47817 12.5564 6.15905C12.5565 6.00572 12.4957 5.85864 12.3873 5.75019C12.2789 5.64174 12.1319 5.58081 11.9785 5.58081ZM10.4006 6.15842C10.4008 5.28708 11.1072 4.58081 11.9785 4.58081C12.3972 4.58081 12.7987 4.74718 13.0946 5.04329C13.3906 5.3394 13.5567 5.74098 13.5564 6.15962C13.5559 7.03096 12.8493 7.73696 11.9779 7.73662C11.1066 7.73629 10.4005 7.02975 10.4006 6.15842Z" fill="#1E54B7"/>
<path fill-rule="evenodd" clip-rule="evenodd" d="M2.44312 6.15945C2.44312 5.288 3.14957 4.58154 4.02102 4.58154C4.89248 4.58154 5.59893 5.288 5.59893 6.15945C5.59893 7.0309 4.89248 7.73736 4.02102 7.73736C3.14957 7.73736 2.44312 7.0309 2.44312 6.15945ZM4.02102 5.58154C3.70185 5.58154 3.44312 5.84028 3.44312 6.15945C3.44312 6.47862 3.70185 6.73736 4.02102 6.73736C4.34019 6.73736 4.59893 6.47862 4.59893 6.15945C4.59893 5.84028 4.34019 5.58154 4.02102 5.58154Z" fill="#1E54B7"/>
<path fill-rule="evenodd" clip-rule="evenodd" d="M2.90862 8.48193H3.7169C3.99304 8.48193 4.2169 8.70579 4.2169 8.98193C4.2169 9.25808 3.99304 9.48193 3.7169 9.48193H2.91435C2.40592 9.49494 2 9.91091 2 10.4201C2 10.9292 2.40592 11.3452 2.91435 11.3582H3.7169C3.99304 11.3582 4.2169 11.5821 4.2169 11.8582C4.2169 12.1343 3.99304 12.3582 3.7169 12.3582H2.89825C1.84357 12.3363 1 11.475 1 10.4201C1 9.36516 1.84357 8.50391 2.89826 8.48204L2.90862 8.48193ZM11.7833 8.98193C11.7833 8.70579 12.0071 8.48193 12.2833 8.48193H13.1019C14.1566 8.50381 15.0002 9.36516 15.0002 10.4201C15.0002 11.475 14.1566 12.3362 13.1019 12.3581L13.0916 12.3583L12.2833 12.3582C12.0071 12.3582 11.7833 12.1343 11.7833 11.8582C11.7833 11.5821 12.0071 11.3582 12.2833 11.3582H13.0858C13.5943 11.3452 14.0002 10.9292 14.0002 10.4201C14.0002 9.91091 13.5943 9.49494 13.0858 9.48193H12.2833C12.0071 9.48193 11.7833 9.25808 11.7833 8.98193Z" fill="#1E54B7"/>
</svg>
