<svg width="24" height="24" viewBox="0 0 24 14" fill="none" xmlns="http://www.w3.org/2000/svg">
<path fill-rule="evenodd" clip-rule="evenodd" d="M12.1235 6.25635C11.3705 6.25653 10.76 6.86693 10.7598 7.62002C10.7595 8.37322 11.3698 8.98405 12.123 8.98449C12.8761 8.98493 13.4871 8.37499 13.4879 7.62194C13.4881 7.25992 13.3444 6.91267 13.0885 6.65657C12.8327 6.40055 12.4857 6.25659 12.1238 6.25635M9.25977 7.61958C9.26023 6.03813 10.5424 4.75635 12.1238 4.75635H12.1242C12.884 4.75668 13.6126 5.05885 14.1497 5.59637C14.6867 6.1339 14.9882 6.86276 14.9879 7.6226L14.9879 7.62293C14.9865 9.20439 13.7036 10.4854 12.1222 10.4845C10.5407 10.4836 9.2593 9.20104 9.25977 7.61958Z" fill="#373C47"/>
<path fill-rule="evenodd" clip-rule="evenodd" d="M14.3049 12.1025C14.313 12.1025 14.3212 12.1027 14.3293 12.1029C16.2574 12.1635 17.789 13.744 17.789 15.673C17.789 17.602 16.2574 19.1825 14.3293 19.2431L14.3058 19.2435H9.94589L9.92234 19.2431C7.99428 19.1825 6.46265 17.602 6.46265 15.673C6.46265 13.744 7.99428 12.1635 9.92234 12.1029L9.94589 12.1025H14.3049ZM9.95856 13.6025C8.84531 13.6433 7.96265 14.5577 7.96265 15.673C7.96265 16.7883 8.84531 17.7027 9.95855 17.7435H14.2931C15.4063 17.7027 16.289 16.7883 16.289 15.673C16.289 14.5577 15.4063 13.6433 14.2931 13.6025H9.95856Z" fill="#373C47"/>
<path fill-rule="evenodd" clip-rule="evenodd" d="M17.9677 8.37158C17.489 8.37158 17.1009 8.75959 17.1008 9.23828C17.1007 9.71697 17.4887 10.1051 17.9674 10.1053C18.446 10.1055 18.8343 9.71763 18.8346 9.23894C18.8347 9.00895 18.7434 8.78833 18.5808 8.62566C18.4182 8.46298 18.1977 8.37158 17.9677 8.37158ZM15.6008 9.23799C15.6011 7.93099 16.6607 6.87158 17.9677 6.87158C18.5957 6.87158 19.1979 7.12113 19.6418 7.5653C20.0857 8.00947 20.3349 8.61183 20.3346 9.2398C20.3338 10.5468 19.2738 11.6058 17.9668 11.6053C16.6598 11.6048 15.6006 10.545 15.6008 9.23799Z" fill="#373C47"/>
<path fill-rule="evenodd" clip-rule="evenodd" d="M3.66479 9.23942C3.66479 7.93224 4.72447 6.87256 6.03165 6.87256C7.33884 6.87256 8.39851 7.93224 8.39851 9.23942C8.39851 10.5466 7.33884 11.6063 6.03165 11.6063C4.72447 11.6063 3.66479 10.5466 3.66479 9.23942ZM6.03165 8.37256C5.5529 8.37256 5.16479 8.76067 5.16479 9.23942C5.16479 9.71817 5.5529 10.1063 6.03165 10.1063C6.51041 10.1063 6.89851 9.71817 6.89851 9.23942C6.89851 8.76067 6.51041 8.37256 6.03165 8.37256Z" fill="#373C47"/>
<path fill-rule="evenodd" clip-rule="evenodd" d="M4.36293 12.7231H5.57535C5.98956 12.7231 6.32535 13.0589 6.32535 13.4731C6.32535 13.8874 5.98956 14.2231 5.57535 14.2231H4.37152C3.60888 14.2427 3 14.8666 3 15.6303C3 16.3941 3.60888 17.018 4.37152 17.0376H5.57535C5.98956 17.0376 6.32535 17.3733 6.32535 17.7876C6.32535 18.2018 5.98956 18.5376 5.57535 18.5376H4.34738C2.76535 18.5047 1.5 17.2127 1.5 15.6303C1.5 14.048 2.76536 12.7561 4.34738 12.7233L4.36293 12.7231ZM17.6749 13.4731C17.6749 13.0589 18.0107 12.7231 18.4249 12.7231H19.6529C21.2349 12.756 22.5003 14.048 22.5003 15.6303C22.5003 17.2127 21.2349 18.5046 19.6529 18.5374L19.6373 18.5377L18.4249 18.5376C18.0107 18.5376 17.6749 18.2018 17.6749 17.7876C17.6749 17.3733 18.0107 17.0376 18.4249 17.0376H19.6288C20.3914 17.018 21.0003 16.3941 21.0003 15.6303C21.0003 14.8666 20.3914 14.2427 19.6288 14.2231H18.4249C18.0107 14.2231 17.6749 13.8874 17.6749 13.4731Z" fill="#373C47"/>
</svg>
