<svg width="16" height="16" viewBox="0 0 16 16" fill="none" xmlns="http://www.w3.org/2000/svg">
<path d="M9.95853 10.5874C9.07583 11.2847 7.97579 11.6488 6.8514 11.616C6.21953 11.6263 5.59189 11.511 5.00491 11.2769C4.41792 11.0428 3.88327 10.6944 3.43196 10.2521C2.98066 9.80969 2.62169 9.2821 2.37587 8.69991C2.13006 8.11772 2.0023 7.49251 2 6.86056C2 5.57366 2.51122 4.33947 3.42119 3.42949C4.33117 2.51952 5.56536 2.0083 6.85226 2.0083C7.48457 2.01014 8.11022 2.1376 8.69287 2.38326C9.27551 2.62893 9.80354 2.9879 10.2463 3.43935C10.689 3.89079 11.0377 4.4257 11.272 5.01301C11.5063 5.60032 11.6215 6.22833 11.6111 6.86056C11.6432 7.98647 11.2771 9.08761 10.5774 9.97026L13.8722 13.2471C13.9127 13.2875 13.9449 13.3356 13.9668 13.3884C13.9887 13.4413 14 13.498 14 13.5552C14 13.6125 13.9887 13.6692 13.9668 13.722C13.9449 13.7749 13.9127 13.8229 13.8722 13.8634V13.8634C13.7901 13.9453 13.6788 13.9914 13.5628 13.9914C13.4468 13.9914 13.3355 13.9453 13.2534 13.8634L9.95853 10.5865V10.5874ZM6.80512 10.7451C7.58273 10.7451 8.34288 10.5145 8.98945 10.0825C9.63601 9.65048 10.1399 9.03643 10.4375 8.31801C10.7351 7.59959 10.813 6.80905 10.6613 6.04638C10.5096 5.28371 10.1351 4.58315 9.58524 4.03329C9.03538 3.48343 8.33482 3.10898 7.57215 2.95727C6.80948 2.80557 6.01895 2.88343 5.30052 3.18101C4.5821 3.47859 3.96805 3.98252 3.53603 4.62909C3.10401 5.27565 2.87342 6.0358 2.87342 6.81342C2.87342 7.85617 3.28765 8.85621 4.02499 9.59354C4.76232 10.3309 5.76237 10.7451 6.80512 10.7451Z" fill="#5F636C" stroke="#5F636C" stroke-width="0.25"/>
</svg>
